<svg width="48" height="48" viewBox="0 0 48 48" fill="none" xmlns="http://www.w3.org/2000/svg">
<circle cx="24" cy="24" r="24" fill="#007CC2"/>
<path fill-rule="evenodd" clip-rule="evenodd" d="M23.9991 39.0002C29.6693 39.0002 34.2659 34.4037 34.2659 28.7335C34.2659 23.0634 29.6693 18.4668 23.9991 18.4668C18.329 18.4668 13.7324 23.0634 13.7324 28.7335C13.7324 34.4037 18.329 39.0002 23.9991 39.0002ZM23.9994 32.156C25.8894 32.156 27.4216 30.6238 27.4216 28.7338C27.4216 26.8437 25.8894 25.3115 23.9994 25.3115C22.1093 25.3115 20.5771 26.8437 20.5771 28.7338C20.5771 30.6238 22.1093 32.156 23.9994 32.156Z" fill="white"/>
<path fill-rule="evenodd" clip-rule="evenodd" d="M22.6771 8.36643C23.4914 7.87786 24.5086 7.87786 25.3229 8.36643L31.7512 12.2234C32.969 12.954 33.3638 14.5335 32.6332 15.7512C31.9025 16.969 30.3231 17.3638 29.1054 16.6332L24 13.57L18.8946 16.6332C17.6769 17.3638 16.0975 16.969 15.3668 15.7512C14.6362 14.5335 15.031 12.954 16.2488 12.2234L22.6771 8.36643Z" fill="white"/>
</svg>
